<?xml version="1.0" encoding="UTF-8" standalone="no"?>
<!DOCTYPE svg PUBLIC "-//W3C//DTD SVG 20010904//EN"
              "http://www.w3.org/TR/2001/REC-SVG-20010904/DTD/svg10.dtd">

<svg xmlns="http://www.w3.org/2000/svg"
     width="0.813335in" height="0.790002in"
     viewBox="0 0 244 237">
  <path id="Selection"
        fill="red" stroke="red" stroke-width="1"
        d="M 13.00,0.00
           C 13.00,0.00 20.47,0.99 20.47,0.99
             20.47,0.99 33.60,21.00 33.60,21.00
             33.60,21.00 74.00,87.00 74.00,87.00
             74.00,87.00 88.19,63.00 88.19,63.00
             88.19,63.00 114.81,20.00 114.81,20.00
             117.13,16.21 125.02,2.04 128.33,0.57
             129.93,-0.14 133.19,0.00 135.00,0.00
             135.00,0.00 148.00,0.00 148.00,0.00
             148.00,0.00 148.00,92.00 148.00,92.00
             148.00,92.00 244.00,92.00 244.00,92.00
             244.00,92.00 244.00,106.00 244.00,106.00
             243.93,116.13 240.36,115.15 231.00,120.42
             231.00,120.42 194.00,140.25 194.00,140.25
             194.00,140.25 130.00,174.69 130.00,174.69
             130.00,174.69 53.00,216.00 53.00,216.00
             53.00,216.00 244.00,216.00 244.00,216.00
             244.00,216.00 244.00,237.00 244.00,237.00
             244.00,237.00 0.00,237.00 0.00,237.00
             0.00,237.00 0.00,0.00 0.00,0.00
             0.00,0.00 13.00,0.00 13.00,0.00 Z
           M 100.32,84.00
           C 96.46,90.12 86.50,104.88 85.00,111.00
             85.00,111.00 71.00,111.00 71.00,111.00
             69.12,111.00 65.89,111.12 64.21,110.40
             60.81,108.94 54.42,96.69 52.20,93.00
             52.20,93.00 33.40,62.00 33.40,62.00
             29.91,56.19 25.45,47.79 21.00,43.00
             21.00,43.00 21.00,208.00 21.00,208.00
             21.00,208.00 59.00,188.31 59.00,188.31
             59.00,188.31 128.00,151.31 128.00,151.31
             128.00,151.31 173.00,127.26 173.00,127.26
             173.00,127.26 198.00,113.00 198.00,113.00
             198.00,113.00 137.00,113.00 137.00,113.00
             128.08,112.98 127.02,111.92 127.00,103.00
             127.00,103.00 127.00,42.00 127.00,42.00
             127.00,42.00 100.32,84.00 100.32,84.00 Z" />
</svg>
